<?xml version="1.0" standalone="no"?>
<!DOCTYPE svg PUBLIC "-//W3C//DTD SVG 20010904//EN"
 "http://www.w3.org/TR/2001/REC-SVG-20010904/DTD/svg10.dtd">
<svg version="1.0" xmlns="http://www.w3.org/2000/svg"
 width="248.000000pt" height="258.000000pt" viewBox="0 0 248.000000 258.000000"
 preserveAspectRatio="xMidYMid meet">

<g transform="translate(0.000000,258.000000) scale(0.100000,-0.100000)"
fill="#000000" stroke="none">
<path d="M164 2468 c-3 -4 2 -21 11 -38 10 -20 21 -87 30 -183 l13 -152 97
-275 c53 -151 191 -551 306 -888 116 -337 217 -629 225 -647 23 -57 52 -69
147 -62 103 8 1311 135 1353 142 32 6 59 27 48 38 -4 3 -13 0 -21 -8 -18 -18
-74 -20 -92 -2 -10 10 -11 9 -6 -5 6 -15 1 -18 -31 -18 -22 0 -100 -7 -174
-15 -74 -8 -182 -20 -240 -26 -58 -6 -161 -17 -230 -25 -69 -7 -190 -20 -270
-29 -80 -8 -203 -21 -273 -29 -179 -22 -170 -28 -235 166 -28 84 -88 259 -133
388 -44 129 -130 377 -189 550 -60 173 -145 420 -189 549 -45 129 -81 236 -81
239 0 2 33 2 73 -2 39 -3 312 -6 604 -6 l533 0 34 -72 c18 -40 58 -125 89
-188 30 -63 74 -155 97 -205 23 -49 93 -194 156 -321 63 -127 114 -233 114
-235 0 -2 -21 -5 -48 -5 -26 -1 -121 -9 -211 -18 -91 -9 -217 -16 -280 -17
-172 -1 -554 -25 -461 -29 73 -3 71 -3 -45 -12 -119 -10 -134 -12 -122 -24 3
-3 241 12 529 35 288 23 533 41 545 41 13 0 24 -8 28 -20 4 -11 16 -32 28 -48
13 -15 31 -52 41 -82 20 -58 52 -130 142 -317 30 -62 54 -119 54 -127 0 -18
-17 -23 -95 -30 -173 -17 -785 -77 -885 -87 -149 -15 -159 -16 -159 -5 1 5 -4
12 -10 15 -8 5 -159 417 -215 588 -11 33 -23 53 -33 53 -10 0 -13 -5 -8 -17 4
-10 58 -161 120 -336 63 -174 117 -322 121 -328 4 -8 29 -9 78 -3 39 4 92 8
119 8 26 1 47 4 47 9 0 4 18 4 40 1 29 -5 40 -3 40 6 0 9 13 11 51 6 38 -5 49
-4 43 5 -5 9 11 10 62 5 48 -4 63 -3 49 4 -14 7 -1 8 45 4 48 -4 61 -2 50 6
-16 11 -10 12 150 12 52 1 69 4 55 10 -13 5 5 7 50 4 49 -3 63 -2 45 5 -18 6
-5 8 45 5 48 -3 64 -2 50 5 -14 6 -4 8 37 6 31 -2 55 0 52 5 -3 4 18 8 45 8
36 0 51 4 51 13 0 8 -61 141 -135 296 -74 156 -135 284 -135 287 0 2 5 4 10 4
6 0 28 -37 49 -83 115 -245 251 -517 261 -517 5 0 10 2 10 4 0 2 -46 98 -101
213 -116 239 -154 322 -141 308 5 -5 65 -126 133 -267 114 -238 139 -281 139
-245 0 8 -102 223 -226 478 -124 255 -245 505 -269 554 -23 50 -79 166 -124
259 -44 93 -81 170 -81 172 0 2 -22 49 -49 104 l-50 100 37 1 c20 1 40 1 45 0
4 0 7 4 7 9 0 7 -224 10 -652 10 -359 0 -659 4 -667 9 -7 5 -11 13 -7 19 6 11
-18 226 -30 256 -7 18 7 19 602 13 l609 -7 22 -25 c12 -14 26 -25 30 -25 10 0
30 -45 49 -105 10 -33 12 -35 13 -14 2 42 -29 118 -56 139 -14 11 -21 20 -15
20 18 0 72 -51 89 -83 10 -21 18 -73 23 -152 l6 -120 427 -853 c310 -618 427
-861 426 -885 0 -27 -2 -29 -9 -12 -5 11 -9 15 -9 8 -1 -6 -10 -9 -21 -6 -11
3 -17 10 -14 15 4 6 -2 8 -14 4 -12 -4 -45 -9 -74 -10 -138 -9 -207 -19 -201
-29 4 -6 -5 -8 -25 -4 -17 3 -68 2 -114 -4 -221 -26 -257 -30 -308 -35 -30 -2
-100 -9 -155 -15 -55 -6 -116 -12 -135 -14 -48 -5 -119 -14 -215 -26 -44 -5
-114 -12 -155 -15 -67 -5 -79 -3 -110 18 -19 13 -36 34 -38 46 -2 12 -8 22
-13 22 -5 0 -7 11 -3 25 3 14 2 25 -4 25 -5 0 -12 14 -16 31 -3 16 -12 37 -20
44 -8 8 -17 34 -21 57 -4 24 -13 52 -20 63 -7 11 -16 36 -20 55 -4 19 -11 40
-16 45 -4 6 -12 29 -18 50 -5 22 -16 58 -24 80 -8 22 -18 58 -21 80 -4 21 -11
42 -16 45 -13 8 -32 62 -26 77 3 7 1 13 -4 13 -6 0 -10 9 -10 19 0 11 -4 23
-10 26 -11 7 -45 114 -42 132 2 7 -1 13 -6 13 -6 0 -13 17 -17 37 -4 21 -12
47 -18 58 -14 24 -35 98 -42 145 -3 19 -10 37 -16 41 -6 3 -10 9 -10 13 3 19
-17 91 -34 126 -7 14 -20 51 -29 83 -10 31 -24 74 -33 95 -9 20 -17 44 -18 53
-2 25 -98 294 -106 297 -4 2 -5 11 -2 21 3 10 0 22 -7 26 -7 5 -8 11 -1 19 15
18 -4 176 -27 225 -14 28 -16 42 -8 45 6 3 3 5 -7 3 -19 -2 -44 -54 -52 -110
-2 -15 -11 -50 -20 -77 l-17 -50 143 -427 c78 -235 145 -435 150 -443 7 -13
68 -199 74 -225 1 -5 7 -23 14 -39 6 -16 13 -36 15 -45 2 -9 6 -24 10 -33 4
-9 9 -25 11 -35 2 -10 4 -19 5 -20 2 -2 4 -7 5 -13 1 -5 4 -12 5 -15 1 -3 4
-9 5 -15 1 -5 4 -12 5 -15 1 -3 4 -9 5 -15 1 -5 4 -12 5 -15 1 -3 4 -9 5 -15
1 -5 3 -11 5 -12 1 -2 3 -11 5 -21 2 -10 7 -26 11 -35 4 -9 8 -23 10 -30 1 -8
6 -21 10 -30 4 -9 8 -20 9 -24 2 -5 4 -10 5 -13 1 -3 4 -9 5 -15 1 -5 4 -12 5
-15 1 -3 4 -9 5 -15 1 -5 4 -12 5 -15 1 -3 4 -9 5 -15 1 -5 4 -12 5 -15 1 -3
4 -9 5 -15 1 -5 4 -12 5 -15 1 -3 4 -9 5 -15 1 -5 4 -12 5 -15 1 -3 4 -9 5
-15 1 -5 4 -12 5 -15 1 -3 4 -9 5 -15 1 -5 3 -11 5 -12 1 -2 3 -11 5 -21 2
-10 7 -26 11 -35 4 -9 8 -20 9 -24 2 -5 4 -10 5 -13 1 -3 4 -9 5 -15 1 -5 3
-11 5 -12 1 -2 3 -11 5 -20 9 -47 60 -186 77 -211 45 -63 82 -67 343 -33 28 4
59 7 70 8 11 1 88 10 170 20 208 25 237 28 263 28 12 0 53 5 90 11 37 6 83 12
102 14 19 2 55 5 80 8 25 3 70 8 100 11 30 3 73 8 95 11 59 9 92 13 170 19 39
3 93 12 120 19 41 11 53 19 67 47 10 19 18 49 18 66 0 20 -142 316 -427 890
l-427 859 -6 115 c-8 134 -23 175 -81 216 -33 22 -55 28 -137 35 -120 11
-1192 17 -1198 7z m1815 -1473 c0 -5 -11 10 -24 35 -13 25 -24 50 -24 55 0 6
11 -10 24 -35 13 -25 24 -49 24 -55z m-866 48 c-13 -2 -33 -2 -45 0 -13 2 -3
4 22 4 25 0 35 -2 23 -4z"/>
<path d="M370 2046 c0 -10 103 -14 538 -18 478 -5 605 -2 552 15 -8 3 -257 8
-552 11 -440 4 -538 3 -538 -8z"/>
<path d="M788 1953 c-352 -3 -388 -5 -388 -20 0 -15 18 -16 197 -10 108 4 358
7 555 7 283 0 359 3 356 13 -5 13 -72 14 -720 10z"/>
<path d="M446 1845 c-5 -13 57 -15 549 -13 362 2 555 6 555 13 0 7 -191 11
-549 13 -483 2 -549 0 -555 -13z"/>
<path d="M1115 1760 c-171 -4 -383 -8 -472 -9 -139 -1 -163 -3 -163 -16 0 -14
42 -15 368 -10 575 9 753 15 749 29 -5 14 -78 15 -482 6z"/>
<path d="M1469 1656 c-4 -3 -642 -16 -836 -16 -94 0 -113 -3 -113 -15 0 -13
34 -14 273 -9 149 3 402 9 561 13 218 4 290 9 294 19 3 9 -19 12 -85 12 -50 0
-92 -2 -94 -4z"/>
<path d="M1170 1539 c-146 -3 -343 -7 -437 -8 -143 -1 -173 -3 -173 -15 0 -13
37 -14 253 -9 138 3 393 8 566 12 238 4 315 9 319 19 4 13 -58 14 -528 1z"/>
<path d="M1215 1434 c-220 -6 -448 -12 -507 -13 -93 -1 -108 -3 -108 -17 0
-15 15 -16 148 -11 81 4 334 12 562 18 228 6 421 12 428 15 6 2 12 8 12 14 0
11 15 12 -535 -6z"/>
<path d="M1250 1324 c-267 -12 -511 -23 -542 -23 -45 -1 -58 -4 -58 -16 0 -13
13 -14 83 -10 78 6 1011 45 1055 45 15 0 20 5 16 15 -4 9 -18 15 -38 14 -17
-1 -249 -12 -516 -25z"/>
<path d="M1775 1234 c-16 -2 -266 -15 -555 -30 -289 -14 -527 -28 -529 -30
-20 -19 69 -19 459 1 245 13 505 27 578 30 103 6 132 10 132 21 0 14 -14 15
-85 8z"/>
<path d="M748 1033 c18 -2 45 -2 60 0 15 2 0 4 -33 4 -33 0 -45 -2 -27 -4z"/>
<path d="M2098 433 c7 -3 16 -2 19 1 4 3 -2 6 -13 5 -11 0 -14 -3 -6 -6z"/>
</g>
</svg>
