<?xml version="1.0" standalone="no"?>
<!DOCTYPE svg PUBLIC "-//W3C//DTD SVG 20010904//EN"
 "http://www.w3.org/TR/2001/REC-SVG-20010904/DTD/svg10.dtd">
<svg version="1.0" xmlns="http://www.w3.org/2000/svg"
 width="154.000000pt" height="160.000000pt" viewBox="0 0 154.000000 160.000000"
 preserveAspectRatio="xMidYMid meet">

<g transform="translate(0.000000,160.000000) scale(0.100000,-0.100000)"
fill="#000000" stroke="none">
<path d="M75 1538 c-3 -7 -4 -337 -3 -733 l3 -720 400 0 400 0 3 274 c2 212 5
272 15 268 79 -34 121 -48 171 -58 50 -9 68 -20 130 -74 113 -98 151 -112 200
-74 36 28 56 70 56 118 0 37 -5 44 -72 101 -80 68 -125 114 -199 206 -45 57
-54 63 -126 87 -71 23 -80 24 -111 11 -65 -27 -61 -43 -64 294 l-3 307 -398 3
c-313 2 -399 0 -402 -10z m793 -300 c1 -173 -2 -298 -7 -298 -5 0 -37 13 -72
29 -35 16 -72 31 -81 35 -10 3 -18 15 -18 28 -1 36 -36 105 -64 123 -14 9 -51
23 -83 32 -69 18 -98 42 -125 106 -24 55 -50 77 -91 77 -39 0 -64 -15 -82 -50
-30 -59 -10 -114 58 -153 51 -30 71 -57 87 -118 24 -93 33 -115 58 -141 53
-57 127 -59 187 -7 l33 29 60 -40 c33 -22 64 -40 70 -40 5 0 16 -8 23 -17 13
-15 12 -16 -6 -8 -43 18 -95 18 -115 0 -36 -33 -25 -53 43 -84 34 -16 77 -44
95 -63 l32 -34 -2 -275 -3 -274 -390 0 -390 0 -3 710 c-1 391 0 716 3 723 3
10 87 12 392 10 l388 -3 3 -297z m-506 111 c11 -6 30 -34 43 -63 29 -66 72
-103 129 -111 81 -13 123 -53 141 -134 5 -23 4 -31 -4 -27 -6 4 -11 19 -11 34
0 33 -30 81 -62 98 -78 44 -178 -22 -178 -116 0 -111 121 -180 194 -111 29 28
45 27 20 0 -31 -36 -80 -52 -118 -39 -58 19 -106 86 -106 147 0 51 -40 113
-95 148 -63 41 -84 80 -65 125 22 53 67 73 112 49z m228 -214 c32 -16 60 -61
60 -94 0 -14 -5 -19 -15 -15 -20 8 -31 -41 -14 -62 11 -14 9 -19 -11 -35 -74
-56 -164 -12 -177 87 -4 30 1 47 19 74 39 58 85 72 138 45z m75 -135 c3 -5 -3
-10 -14 -10 -11 0 -23 5 -26 10 -3 6 3 10 14 10 11 0 23 -4 26 -10z m145 -55
c96 -42 135 -52 127 -31 -9 23 43 29 94 12 24 -9 52 -16 61 -16 10 0 35 -22
57 -50 81 -102 143 -167 216 -225 l75 -60 -3 -48 c-5 -54 -41 -101 -87 -112
-28 -7 -44 4 -164 106 -60 50 -73 57 -139 69 -90 16 -138 39 -203 101 -29 26
-63 51 -78 55 -21 5 -24 9 -16 24 15 28 12 40 -12 50 -22 8 -22 9 -2 9 44 2
113 -31 139 -65 15 -20 29 -33 32 -30 8 8 -90 126 -105 126 -7 0 -20 9 -29 20
-10 11 -22 20 -28 20 -7 0 -22 11 -35 25 -12 13 -27 22 -31 19 -11 -7 -49 14
-49 27 0 6 9 8 19 4 11 -3 22 -1 26 5 9 15 42 7 135 -35z m-70 -155 c0 -11 -6
-20 -14 -20 -18 0 -29 16 -21 30 11 18 35 11 35 -10z"/>
<path d="M274 725 c-30 -21 -47 -68 -40 -110 5 -27 19 -44 61 -75 68 -50 86
-77 101 -152 15 -74 48 -122 96 -144 49 -22 102 -13 141 23 56 53 70 119 41
193 -20 49 -54 75 -120 91 -83 20 -101 34 -134 104 -17 36 -39 69 -50 75 -27
14 -72 12 -96 -5z m80 -4 c16 -7 35 -31 56 -75 34 -73 55 -89 142 -107 124
-27 167 -168 78 -257 -37 -38 -80 -46 -130 -26 -49 20 -81 69 -91 140 -9 65
-34 102 -104 154 -59 44 -71 75 -50 128 8 18 24 36 37 42 30 12 32 12 62 1z"/>
<path d="M281 684 c-12 -15 -21 -37 -21 -50 0 -57 83 -87 114 -42 23 32 20 65
-9 93 -31 32 -58 32 -84 -1z m89 -24 c5 -10 10 -23 10 -29 0 -18 -39 -51 -60
-51 -27 0 -52 42 -45 73 12 48 71 53 95 7z"/>
<path d="M305 666 c-20 -15 -17 -44 7 -59 12 -8 21 -7 32 2 36 30 -1 85 -39
57z"/>
<path d="M483 511 c-139 -87 -27 -311 117 -236 40 20 60 63 60 125 0 43 -5 56
-33 86 -41 45 -96 55 -144 25z m114 -13 c12 -6 29 -26 38 -43 51 -108 -43
-223 -140 -171 -90 49 -80 191 16 222 34 12 47 10 86 -8z"/>
<path d="M521 471 c-12 -17 -18 -31 -12 -31 6 0 11 -9 11 -20 0 -15 7 -20 25
-20 18 0 25 5 25 19 0 11 4 21 9 23 5 2 -1 16 -13 31 l-23 29 -22 -31z m41
-36 c-2 -14 -10 -25 -17 -25 -16 0 -25 46 -12 59 16 16 35 -6 29 -34z"/>
<path d="M520 371 c0 -11 -4 -21 -10 -23 -5 -1 1 -16 13 -32 l24 -29 22 32
c12 17 18 31 12 31 -6 0 -11 9 -11 20 0 15 -7 20 -25 20 -18 0 -25 -5 -25 -19z
m42 -16 c6 -28 -13 -50 -29 -34 -13 13 -4 59 12 59 7 0 15 -11 17 -25z"/>
<path d="M286 1324 c-39 -38 -26 -109 22 -121 51 -13 94 34 77 86 -15 49 -67
67 -99 35z m67 -6 c28 -22 32 -63 8 -87 -12 -12 -28 -21 -36 -21 -28 0 -57 39
-50 68 6 28 30 52 50 52 6 0 19 -6 28 -12z"/>
<path d="M300 1295 c-26 -31 13 -82 44 -56 19 16 21 42 4 59 -16 16 -33 15
-48 -3z"/>
<path d="M490 1015 c0 -78 2 -85 20 -85 16 0 20 7 20 30 0 27 3 30 30 30 31 0
50 22 50 59 0 32 -27 51 -76 51 l-44 0 0 -85z m94 59 c33 -33 9 -74 -43 -74
-17 0 -21 -6 -21 -30 0 -16 -4 -30 -10 -30 -6 0 -10 32 -10 75 l0 75 34 0 c19
0 42 -7 50 -16z"/>
<path d="M520 1045 c0 -23 4 -26 28 -23 19 2 27 9 27 23 0 14 -8 21 -27 23
-24 3 -28 0 -28 -23z m43 0 c1 -5 -6 -11 -15 -13 -11 -2 -18 3 -18 13 0 17 30
18 33 0z"/>
<path d="M1098 796 c-22 -16 -24 -38 -3 -30 12 5 15 -3 15 -35 0 -26 5 -41 13
-41 8 0 12 19 12 60 0 61 -7 70 -37 46z"/>
<path d="M980 771 c0 -5 7 -14 15 -21 14 -12 13 -16 -6 -37 -22 -23 -22 -23
-2 -23 12 0 24 6 27 13 5 10 7 10 12 0 3 -7 15 -13 27 -13 20 0 20 0 -2 23
-19 21 -20 25 -6 37 8 7 15 16 15 21 0 14 -28 11 -34 -3 -5 -10 -7 -10 -12 0
-6 14 -34 17 -34 3z"/>
</g>
</svg>
