<?xml version="1.0" standalone="no"?>
<!DOCTYPE svg PUBLIC "-//W3C//DTD SVG 20010904//EN"
 "http://www.w3.org/TR/2001/REC-SVG-20010904/DTD/svg10.dtd">
<svg version="1.0" xmlns="http://www.w3.org/2000/svg"
 width="585.000000pt" height="281.000000pt" viewBox="0 0 585.000000 281.000000"
 preserveAspectRatio="xMidYMid meet">

<g transform="translate(0.000000,281.000000) scale(0.100000,-0.100000)"
fill="#000000" stroke="none">
<path d="M1175 2720 c3 -6 -1 -7 -9 -4 -9 3 -16 1 -16 -5 0 -6 -6 -8 -14 -5
-8 3 -17 1 -20 -5 -4 -6 -13 -8 -20 -5 -16 6 -31 -12 -17 -20 5 -4 21 -2 35 4
14 5 26 7 26 5 0 -13 -53 -25 -65 -15 -18 15 -69 -6 -61 -25 3 -8 1 -15 -4
-15 -5 0 -8 -9 -7 -21 1 -14 7 -19 19 -16 11 3 15 1 11 -6 -4 -6 0 -8 10 -4
12 5 105 -113 401 -512 212 -285 388 -525 391 -533 5 -12 -33 -29 -162 -76
-185 -67 -939 -339 -1321 -478 -197 -71 -250 -94 -278 -120 l-34 -34 0 -171 0
-171 81 -101 c44 -56 89 -112 100 -125 10 -12 19 -24 19 -27 0 -5 19 -29 71
-88 43 -50 77 -44 389 73 530 197 1028 383 1355 505 715 266 1826 680 2130
793 l320 120 6 -27 c7 -33 27 -71 37 -71 16 0 42 -71 42 -113 0 -23 6 -51 13
-62 8 -11 26 -51 41 -90 15 -38 33 -77 40 -85 11 -13 68 -127 90 -180 6 -14
27 -50 70 -117 24 -37 146 -125 206 -148 16 -6 116 -154 201 -295 75 -125 91
-140 157 -140 126 0 281 84 323 177 25 56 24 79 -9 149 -26 54 -71 190 -92
274 -26 108 -39 209 -64 478 -7 84 -16 155 -19 158 -3 4 -4 -36 -2 -87 l4 -94
-9 75 c-5 41 -10 86 -12 100 -1 14 -10 36 -20 49 -10 13 -18 29 -18 35 0 15
-72 86 -87 86 -6 0 -24 17 -39 37 -66 84 -119 149 -129 158 -7 6 -25 27 -40
48 -34 46 -105 97 -136 97 -12 0 -30 -7 -39 -15 -16 -15 -18 -10 -25 80 -6 79
-10 95 -23 95 -15 0 -15 2 -2 10 12 8 -15 40 -138 162 -122 123 -154 150 -162
138 -6 -10 -10 -11 -10 -2 0 26 43 40 -835 -278 -214 -78 -412 -149 -440 -159
-27 -10 -340 -123 -693 -251 -355 -128 -647 -228 -652 -224 -6 7 -545 706
-646 839 -97 127 -167 210 -177 208 -6 -1 -23 -5 -37 -8 -19 -5 -17 -1 10 14
20 11 37 15 39 9 2 -5 12 3 22 18 10 15 16 31 13 36 -3 4 -25 8 -50 8 -27 0
-43 -4 -39 -10z m31 -15 c-13 -10 -15 -15 -6 -15 7 0 11 -2 9 -5 -3 -2 -15 -2
-27 2 l-23 6 23 12 c32 18 47 17 24 0z m-56 -45 c-19 -11 -42 -19 -50 -19 -8
0 3 8 25 18 52 25 70 26 25 1z m-1 -24 c-2 -2 -19 -11 -36 -20 -27 -13 -32
-14 -27 -2 5 13 19 19 58 25 5 0 7 -1 5 -3z m67 -33 c-1 -12 6 -18 22 -18 45
-1 50 -54 6 -74 -22 -10 -27 -7 -54 31 l-30 41 27 19 c16 10 29 18 29 18 1 0
1 -8 0 -17z m-70 -39 c10 -8 12 -13 4 -9 -8 4 -3 -5 12 -18 15 -14 25 -27 23
-29 -3 -2 9 -19 25 -37 17 -18 30 -34 30 -36 0 -11 64 -97 81 -108 10 -8 17
-16 14 -19 -3 -3 2 -11 12 -19 14 -12 16 -12 8 0 -5 9 -4 12 3 7 6 -4 9 -13 5
-21 -3 -8 0 -15 6 -15 6 0 11 -6 11 -14 0 -8 13 -25 28 -38 16 -13 27 -29 24
-36 -2 -7 3 -12 12 -12 9 0 16 -5 16 -11 0 -7 8 -18 18 -26 10 -8 11 -11 2 -7
-13 7 -13 5 -1 -9 7 -9 17 -14 22 -11 5 3 8 0 7 -8 -2 -8 5 -12 17 -11 11 1
14 0 8 -3 -7 -3 -13 -10 -13 -15 0 -6 4 -8 9 -5 5 3 8 -2 7 -12 0 -9 5 -16 12
-14 6 1 12 -5 12 -13 0 -8 5 -15 11 -15 5 0 8 -4 5 -8 -3 -4 11 -25 30 -46 19
-20 34 -39 34 -42 0 -16 54 -73 64 -67 6 3 8 3 4 -2 -7 -7 18 -65 28 -65 3 0
2 6 -2 13 -4 6 -4 9 0 5 4 -3 15 -21 25 -40 9 -18 21 -32 27 -31 6 1 11 -4 11
-10 0 -20 34 -67 44 -61 5 3 8 1 7 -5 -2 -5 6 -17 17 -26 11 -9 14 -14 8 -10
-22 11 -14 -12 10 -28 19 -14 20 -18 7 -26 -8 -6 -17 -11 -20 -11 -6 0 -120
152 -621 830 -43 58 -94 126 -113 152 -20 25 -36 49 -36 52 0 12 26 6 46 -10z
m174 -60 c0 -2 -7 -4 -15 -4 -8 0 -15 4 -15 10 0 5 7 7 15 4 8 -4 15 -8 15
-10z m-48 -16 c-6 -6 -15 -8 -19 -4 -4 4 -1 11 7 16 19 12 27 3 12 -12z m3373
-36 c19 -3 33 2 42 14 12 17 22 10 118 -86 99 -98 103 -104 82 -115 -23 -11
-37 -65 -18 -65 26 0 7 -18 -31 -30 -24 -8 -88 -32 -143 -53 -55 -22 -122 -47
-150 -57 -27 -10 -81 -30 -120 -45 -38 -15 -99 -38 -135 -52 -128 -48 -166
-62 -245 -93 -44 -17 -102 -40 -130 -50 -27 -10 -81 -30 -120 -45 -148 -55
-174 -65 -315 -120 -80 -31 -192 -74 -250 -95 -58 -21 -139 -52 -180 -68 -117
-45 -317 -121 -400 -152 -41 -15 -117 -44 -167 -64 -51 -20 -95 -36 -99 -36
-3 0 -20 -6 -37 -14 -45 -21 -190 -76 -199 -76 -5 0 -8 9 -8 20 0 25 -35 40
-73 33 -22 -4 -27 -11 -27 -34 0 -21 6 -32 21 -38 25 -9 52 3 -226 -101 -104
-40 -246 -93 -315 -120 -192 -74 -361 -138 -405 -154 -22 -7 -71 -26 -110 -41
-38 -15 -99 -38 -135 -52 -36 -13 -94 -36 -130 -49 -36 -14 -87 -33 -115 -44
-27 -10 -81 -31 -120 -46 -38 -14 -90 -28 -115 -30 -42 -3 -43 -3 -11 5 55 15
69 59 26 87 -33 21 -80 7 -79 -25 1 -29 -21 -27 -43 4 -19 27 -146 199 -184
250 -12 17 -16 24 -9 18 20 -18 86 -16 104 3 20 20 20 43 0 51 -10 4 10 16 58
34 164 62 348 130 433 160 127 45 224 80 340 123 232 86 322 119 360 131 22 7
120 43 218 79 98 36 182 66 185 66 4 0 12 -10 17 -22 11 -25 34 -33 70 -24 28
7 38 41 18 62 -8 8 -14 16 -12 18 4 3 425 156 1889 685 798 288 825 297 835
277 6 -13 22 -22 40 -24z m-3307 0 c24 3 27 0 27 -30 1 -27 -4 -34 -24 -39
-20 -5 -31 1 -57 33 l-33 38 27 18 c26 17 27 17 30 -3 3 -15 10 -20 30 -17z
m57 -85 c-20 -11 -27 -5 -19 17 5 13 9 14 21 5 12 -11 12 -14 -2 -22z m9 -32
c6 -18 36 -20 36 -3 0 8 5 7 15 -3 23 -23 10 -76 -21 -82 -23 -4 -54 18 -54
40 0 6 -7 16 -16 24 -14 12 -14 14 2 26 23 17 31 16 38 -2z m97 -82 c2 1 -7
-7 -20 -18 -30 -24 -58 -31 -40 -9 6 7 15 12 19 9 10 -6 22 24 14 38 -3 7 1 4
9 -5 8 -10 16 -17 18 -15z m2 -43 c-6 -22 15 -28 34 -9 17 17 39 -27 23 -46
-7 -8 -9 -18 -6 -24 6 -8 -15 -21 -34 -21 -5 0 -22 19 -39 43 l-29 43 26 16
c15 9 28 17 29 17 0 1 -1 -8 -4 -19z m3476 -157 c1 -37 -3 -44 -27 -57 -41
-21 -188 -79 -322 -126 -30 -11 -65 -25 -76 -31 -31 -16 -74 14 -74 51 0 42
-65 57 -102 23 -32 -29 -16 -73 27 -73 20 0 45 -17 45 -31 0 -4 -12 -11 -27
-17 -58 -22 -362 -136 -438 -164 -92 -34 -151 -56 -250 -93 -38 -14 -88 -32
-111 -40 -22 -7 -63 -22 -90 -33 -48 -20 -518 -197 -599 -225 -47 -16 -192
-70 -355 -132 -63 -24 -194 -73 -290 -108 -96 -36 -400 -149 -675 -252 -275
-102 -585 -217 -690 -256 -104 -38 -206 -76 -225 -84 -127 -52 -313 -115 -340
-115 -34 0 -68 29 -137 115 -18 22 -58 71 -90 110 l-58 69 -5 103 c-3 57 -2
103 2 103 4 0 15 -11 25 -25 54 -75 134 -182 147 -197 9 -10 16 -21 16 -25 1
-18 70 -75 84 -70 8 3 16 1 19 -6 3 -9 19 -9 68 2 35 7 69 16 74 21 6 4 37 17
70 29 33 12 69 25 80 30 11 5 72 28 135 52 187 69 305 113 365 138 17 7 48 19
70 26 22 8 69 25 105 38 36 14 94 36 130 50 36 14 101 39 145 57 44 17 103 40
130 50 28 10 82 30 120 45 39 15 93 35 120 45 108 40 259 98 380 145 106 41
194 75 250 95 28 10 82 31 120 45 39 15 93 35 120 45 28 10 86 33 130 50 44
17 103 40 132 50 29 10 67 25 85 33 18 9 51 21 73 27 22 7 45 16 50 20 6 4 23
10 39 14 15 4 47 15 70 26 22 10 59 24 81 30 22 7 45 16 50 20 6 4 35 15 65
25 30 10 60 21 65 25 6 3 39 17 75 30 36 12 70 26 75 30 6 4 24 11 42 15 18 3
50 15 72 26 22 10 45 19 51 19 5 0 29 8 53 19 53 23 180 71 189 71 4 0 32 11
62 25 30 14 58 25 63 25 7 0 130 47 198 76 17 7 71 27 120 44 50 17 99 36 110
41 11 5 54 22 95 37 l75 28 7 -46 c3 -25 7 -64 7 -87z m-3380 71 c6 4 11 2 11
-3 0 -6 -4 -11 -8 -11 -5 0 -17 -7 -28 -15 -18 -15 -18 -15 7 -9 16 3 30 1 34
-7 6 -8 4 -10 -6 -4 -11 6 -12 5 -2 -5 10 -10 15 -11 27 -1 11 10 18 6 37 -20
13 -18 18 -29 11 -25 -8 4 -15 -2 -21 -17 -10 -26 -66 -43 -78 -24 -3 6 -1 7
5 3 20 -12 13 10 -8 29 -11 10 -20 28 -20 41 0 13 -5 26 -11 30 -8 5 -6 10 5
16 9 5 16 17 16 26 0 14 2 14 9 3 5 -7 14 -10 20 -7z m3477 -92 c-7 -12 31
-42 53 -42 11 0 34 -19 53 -42 18 -24 45 -56 60 -73 14 -16 44 -53 65 -82 21
-28 68 -79 104 -112 37 -33 71 -73 78 -88 6 -16 19 -83 29 -149 11 -78 21
-119 28 -117 7 2 14 -17 17 -49 18 -169 29 -252 37 -274 6 -14 10 -38 10 -54
0 -16 4 -39 9 -52 5 -13 19 -59 31 -103 12 -44 38 -118 57 -163 l36 -84 -23
-49 c-32 -68 -98 -120 -195 -154 -89 -30 -152 -30 -186 1 -17 15 -40 52 -116
187 -7 12 -43 67 -81 122 -56 83 -76 104 -117 125 -86 44 -131 77 -164 119
-18 22 -77 131 -133 241 -89 179 -98 203 -86 218 20 23 58 91 58 103 0 21 -18
7 -31 -23 -7 -18 -21 -43 -30 -56 -17 -22 -18 -22 -28 -4 -8 16 -4 29 24 68
45 63 44 81 0 30 -30 -34 -35 -36 -35 -18 0 12 -5 32 -11 46 -10 20 -8 29 11
56 24 34 21 75 -8 96 -26 19 -8 27 33 15 44 -12 102 -72 187 -194 72 -105 131
-157 177 -157 17 0 31 5 31 10 0 6 -9 10 -20 10 -11 0 -20 5 -20 10 0 25 41 1
190 -111 129 -97 165 -120 184 -115 24 6 53 57 42 75 -4 5 -48 41 -99 79 -51
39 -108 83 -128 98 -20 16 -46 36 -58 44 -25 17 -26 28 -4 52 14 15 14 24 5
57 -7 21 -12 59 -12 85 0 40 4 48 25 58 14 6 25 15 25 20 0 12 -13 10 -37 -7
-20 -14 -24 -13 -57 22 -53 57 -69 97 -62 154 4 31 3 49 -4 49 -6 0 -10 -30
-10 -74 0 -80 -4 -86 -71 -86 -27 0 -89 57 -89 82 0 9 -3 9 -12 0 -9 -9 -4
-21 26 -51 21 -22 35 -44 32 -50 -4 -6 -26 -22 -50 -36 l-43 -25 -56 25 c-86
40 -85 81 3 129 25 14 68 44 95 67 28 23 68 50 90 61 22 10 65 34 95 53 52 32
87 45 76 27z m-3389 -29 c-4 -3 -2 -12 4 -20 6 -7 8 -13 3 -14 -5 0 -17 -2
-27 -4 -9 -2 -15 1 -11 6 3 5 10 6 16 3 6 -4 8 1 3 15 -4 14 -2 21 6 21 7 0 9
-3 6 -7z m20 -57 c-9 -23 20 -41 39 -25 13 10 17 10 24 -2 6 -8 5 -18 0 -23
-6 -6 -10 -18 -10 -27 0 -28 -30 -32 -54 -7 -61 65 -61 65 -29 82 35 19 36 19
30 2z m3068 -68 c-11 -7 -26 -18 -33 -25 -7 -7 -19 -13 -27 -13 -7 0 -30 -17
-52 -38 l-40 -39 -28 24 c-15 13 -26 25 -24 26 4 2 15 7 134 52 66 25 103 32
70 13z m-2969 -18 c8 0 14 -5 14 -11 0 -6 -6 -9 -14 -6 -9 4 -16 -1 -19 -11
-2 -9 -4 -1 -4 18 0 19 2 29 4 23 3 -7 11 -13 19 -13z m2749 -63 c33 -22 72
-54 86 -71 15 -17 44 -37 65 -45 41 -15 51 -21 316 -218 l168 -124 -22 -29
-21 -29 -38 27 c-66 47 -233 175 -251 191 -9 9 -34 28 -55 44 -21 15 -54 47
-73 72 -21 26 -53 52 -80 63 -60 26 -190 131 -190 154 0 23 18 16 95 -35z
m-2790 24 c-8 -14 -25 -14 -25 0 0 5 5 7 10 4 6 -3 10 -1 10 6 0 7 3 10 6 6 3
-3 3 -10 -1 -16z m45 -26 c0 -8 9 -15 20 -15 12 0 20 7 20 18 0 14 4 12 20 -8
10 -14 14 -27 9 -29 -6 -2 -14 -14 -19 -27 -5 -13 -17 -24 -27 -24 -21 0 -77
75 -68 90 10 16 45 12 45 -5z m2720 -52 c27 -21 48 -42 47 -47 -3 -9 -28 -19
-234 -96 -290 -109 -816 -305 -1138 -425 -2220 -827 -2809 -1045 -2829 -1045
-33 0 -57 10 -50 21 3 6 -7 26 -23 47 -15 20 -30 50 -33 67 -4 22 -11 30 -25
30 -20 0 -35 15 -107 105 -27 33 -34 50 -27 60 9 15 14 11 91 -83 58 -71 89
-96 126 -107 53 -14 102 0 372 100 47 18 108 40 135 50 28 10 82 30 120 45
151 58 328 122 382 140 24 8 58 21 75 29 18 8 58 24 88 34 98 35 194 71 215
81 33 15 272 101 281 101 5 0 22 7 38 15 17 9 55 24 85 35 107 37 196 70 216
80 11 5 45 19 75 29 132 45 279 100 306 114 16 8 42 17 58 21 15 4 47 15 70
25 22 9 64 25 91 35 48 17 71 26 220 81 39 15 99 37 135 50 36 13 101 38 145
55 44 17 98 37 120 44 22 7 56 20 75 29 19 8 69 27 110 42 41 15 107 38 145
52 39 14 79 29 90 34 21 10 125 48 215 80 30 11 69 26 87 34 17 8 36 15 41 15
6 0 41 13 79 30 37 16 72 29 76 30 5 0 31 -17 57 -37z m505 -40 c33 -39 41
-57 45 -100 3 -34 1 -53 -5 -53 -14 0 -95 59 -95 69 0 10 -46 31 -65 31 -24 0
-17 -20 8 -21 16 0 11 -4 -17 -15 -38 -14 -41 -13 -79 13 -35 24 -37 29 -22
38 9 5 33 22 52 38 20 15 48 27 62 27 14 0 33 5 41 10 25 16 34 12 75 -37z
m-3142 -6 c-19 -10 -42 -17 -51 -15 -12 3 -7 8 16 18 18 8 30 20 28 26 -3 8 2
8 18 1 23 -11 23 -11 -11 -30z m17 -32 c0 -18 36 -20 43 -2 3 8 9 6 20 -8 13
-17 13 -21 -1 -31 -8 -6 -13 -18 -9 -27 4 -10 -2 -17 -16 -21 -17 -4 -30 3
-54 32 -37 42 -41 59 -15 65 30 8 32 7 32 -8z m2685 -39 c15 -23 15 -27 0 -50
-23 -34 -41 -33 -60 4 -20 39 -19 49 8 60 33 13 35 12 52 -14z m-2595 -32 c0
-8 -4 -12 -10 -9 -5 3 -10 10 -10 16 0 5 5 9 10 9 6 0 10 -7 10 -16z m2936 -9
c-28 -15 -51 -12 -41 6 4 5 21 9 38 9 l32 0 -29 -15z m89 -31 c22 -13 48 -27
58 -30 21 -8 22 -22 1 -45 -13 -15 -21 -16 -38 -7 -11 6 -23 14 -26 17 -3 3
-22 19 -42 34 -21 15 -38 32 -38 37 0 7 17 15 40 18 3 1 23 -10 45 -24z m-159
-101 c-8 -9 -46 32 -46 50 0 7 12 -1 27 -15 15 -15 23 -31 19 -35z m-3019 16
c-9 -6 -14 -15 -11 -21 4 -7 2 -8 -5 -4 -14 9 3 36 23 36 6 0 3 -5 -7 -11z
m3089 -51 c24 -17 44 -35 44 -39 0 -17 -35 -27 -50 -15 -33 26 -62 65 -55 75
9 16 12 15 61 -21z m361 -160 c81 -62 95 -82 71 -106 -20 -20 -31 -15 -117 49
-69 52 -81 64 -75 82 6 20 21 36 33 37 3 0 42 -28 88 -62z m-4902 -739 c-4 -5
-14 -8 -23 -8 -15 1 -15 2 1 6 9 2 14 9 11 15 -4 7 -2 8 5 4 6 -4 9 -12 6 -17z
m-295 -33 c0 -3 -4 -8 -10 -11 -5 -3 -10 -1 -10 4 0 6 5 11 10 11 6 0 10 -2
10 -4z"/>
<path d="M3850 1731 c-15 -4 -29 -18 -35 -35 -8 -23 -6 -30 10 -42 10 -8 28
-14 40 -14 58 0 90 71 39 90 -14 6 -26 10 -27 9 -1 -1 -13 -4 -27 -8z"/>
<path d="M4324 1259 l-29 -32 28 7 27 6 0 -60 c0 -33 4 -60 10 -60 6 0 10 35
10 85 0 47 -4 85 -8 85 -5 0 -21 -14 -38 -31z"/>
<path d="M4150 1245 c0 -3 7 -17 16 -30 14 -22 14 -26 -2 -54 -23 -38 -11 -52
16 -20 l21 24 15 -22 c9 -13 20 -23 25 -23 15 0 10 23 -10 49 -17 23 -18 27
-4 48 21 32 8 42 -15 13 l-19 -24 -12 22 c-10 20 -31 31 -31 17z"/>
</g>
</svg>
