<?xml version="1.0" standalone="no"?>
<!DOCTYPE svg PUBLIC "-//W3C//DTD SVG 20010904//EN"
 "http://www.w3.org/TR/2001/REC-SVG-20010904/DTD/svg10.dtd">
<svg version="1.0" xmlns="http://www.w3.org/2000/svg"
 width="500.000000pt" height="95.000000pt" viewBox="0 0 500.000000 95.000000"
 preserveAspectRatio="xMidYMid meet">

<g transform="translate(0.000000,95.000000) scale(0.100000,-0.100000)"
fill="#000000" stroke="none">
<path d="M4225 921 c-179 -44 -297 -145 -339 -290 -20 -69 -21 -236 -2 -309
39 -144 159 -251 338 -299 89 -24 309 -24 398 1 144 40 259 125 309 230 30 65
40 120 41 216 0 244 -114 388 -358 451 -98 25 -286 25 -387 0z m307 -192 c64
-17 130 -69 160 -128 24 -45 28 -65 28 -130 0 -88 -20 -139 -71 -188 -105 -99
-316 -111 -436 -24 -80 58 -120 188 -90 292 45 154 216 229 409 178z"/>
<path d="M922 482 c-111 -247 -202 -452 -202 -455 0 -4 55 -7 123 -7 l122 0
35 85 35 85 205 0 205 0 33 -85 34 -85 134 0 c74 0 134 1 134 3 0 2 -83 205
-184 452 l-184 450 -144 3 -143 3 -203 -449z m371 103 c19 -50 44 -114 56
-142 l21 -53 -124 0 -124 0 50 113 c27 61 56 127 64 146 8 19 16 32 19 30 2
-3 19 -45 38 -94z"/>
<path d="M20 470 l0 -450 125 0 125 0 0 165 0 165 200 0 200 0 0 95 0 95 -200
0 -200 0 0 95 0 95 295 0 295 0 0 95 0 95 -420 0 -420 0 0 -450z"/>
<path d="M1850 470 l0 -451 123 3 122 3 3 110 3 110 67 68 c37 37 72 66 79 65
7 -2 70 -82 141 -178 l128 -175 142 -3 c78 -1 142 0 142 2 0 3 -85 120 -190
261 -104 140 -190 258 -190 262 0 4 82 90 182 190 l183 183 -145 0 -145 0
-197 -197 -198 -198 0 198 0 197 -125 0 -125 0 0 -450z"/>
<path d="M2910 475 l0 -445 115 0 114 0 3 158 3 157 55 3 55 2 135 -160 135
-159 133 -1 133 0 -18 23 c-10 12 -71 84 -135 159 -65 75 -118 139 -118 142 0
3 13 6 28 6 46 0 134 51 169 97 37 50 58 135 50 209 -10 96 -68 178 -159 223
l-61 31 -319 0 -318 0 0 -445z m604 223 c38 -35 39 -86 1 -123 -24 -25 -27
-25 -195 -25 l-170 0 0 85 0 85 169 0 c162 0 171 -1 195 -22z"/>
</g>
</svg>
